<svg width="1440" height="810" viewBox="0 0 1440 810" fill="none" xmlns="http://www.w3.org/2000/svg">
<path d="M1440 810H0V0H1440V810ZM648.619 334.7C640.619 334.7 633.518 335.934 627.318 338.4C621.119 340.8 615.886 344.033 611.619 348.1C607.352 352.166 604.119 356.8 601.919 362C599.719 367.2 598.619 372.533 598.619 378C598.619 384.8 599.552 390.534 601.419 395.2C603.286 399.8 605.719 403.667 608.719 406.8C611.785 409.866 615.253 412.366 619.119 414.3C622.986 416.166 626.952 417.766 631.019 419.1C635.085 420.366 639.052 421.533 642.919 422.6C646.786 423.666 650.219 424.9 653.219 426.3C656.285 427.7 658.753 429.466 660.619 431.6C662.486 433.733 663.419 436.5 663.419 439.9C663.419 445.767 661.718 450.067 658.318 452.8C654.918 455.466 650.152 456.8 644.019 456.8C639.485 456.8 635.552 456.167 632.219 454.9C628.885 453.634 625.918 452.234 623.318 450.7C620.785 449.167 618.486 447.767 616.419 446.5C614.419 445.233 612.419 444.6 610.419 444.6C608.886 444.6 607.452 445 606.119 445.8C604.853 446.533 603.819 447.466 603.019 448.6L593.019 464.4C595.885 467.267 599.253 469.867 603.119 472.2C606.986 474.533 611.119 476.567 615.519 478.3C619.919 479.966 624.452 481.267 629.119 482.2C633.852 483.133 638.485 483.6 643.019 483.6C651.285 483.6 658.652 482.367 665.119 479.9C671.652 477.367 677.119 473.933 681.519 469.6C685.985 465.2 689.385 460.067 691.719 454.2C694.052 448.334 695.219 442.033 695.219 435.3C695.219 429.233 694.286 424.066 692.419 419.8C690.552 415.467 688.085 411.8 685.019 408.8C682.019 405.8 678.552 403.334 674.619 401.4C670.753 399.467 666.785 397.8 662.719 396.4C658.652 394.934 654.652 393.633 650.719 392.5C646.852 391.3 643.385 390 640.318 388.6C637.319 387.2 634.885 385.533 633.019 383.6C631.152 381.666 630.219 379.233 630.219 376.3C630.219 371.7 631.752 368.067 634.818 365.4C637.952 362.667 642.685 361.3 649.019 361.3C652.685 361.3 655.952 361.8 658.818 362.8C661.685 363.733 664.219 364.8 666.419 366C668.686 367.2 670.686 368.3 672.419 369.3C674.219 370.233 675.886 370.7 677.419 370.7C679.152 370.7 680.552 370.3 681.619 369.5C682.752 368.7 683.819 367.5 684.818 365.9L693.219 350.2C690.619 347.8 687.652 345.666 684.318 343.8C681.052 341.867 677.519 340.234 673.719 338.9C669.919 337.5 665.886 336.466 661.619 335.8C657.419 335.066 653.086 334.7 648.619 334.7ZM761.161 376.7C753.228 376.7 746.094 378.066 739.761 380.8C733.494 383.533 728.128 387.234 723.661 391.9C719.261 396.567 715.861 402 713.461 408.2C711.128 414.4 709.961 420.967 709.961 427.9C709.961 437.1 711.327 445.166 714.061 452.1C716.861 459.033 720.628 464.833 725.361 469.5C730.161 474.166 735.727 477.7 742.061 480.1C748.46 482.433 755.294 483.6 762.561 483.6C766.094 483.6 769.794 483.333 773.661 482.8C777.594 482.333 781.495 481.467 785.361 480.2C789.295 478.867 793.094 477.066 796.761 474.8C800.494 472.466 803.961 469.466 807.161 465.8L798.161 454.7C796.894 452.9 795.027 452 792.561 452C790.694 452 788.894 452.433 787.161 453.3C785.494 454.166 783.627 455.134 781.561 456.2C779.561 457.267 777.261 458.233 774.661 459.1C772.061 459.966 768.961 460.4 765.361 460.4C758.628 460.4 753.128 458.466 748.861 454.6C744.595 450.666 741.961 444.367 740.961 435.7H800.761C802.161 435.7 803.294 435.534 804.161 435.2C805.094 434.867 805.828 434.267 806.361 433.4C806.895 432.534 807.261 431.367 807.461 429.9C807.661 428.434 807.761 426.533 807.761 424.2C807.761 416.734 806.594 410.067 804.261 404.2C801.994 398.267 798.794 393.267 794.661 389.2C790.594 385.134 785.694 382.034 779.961 379.9C774.294 377.767 768.028 376.7 761.161 376.7ZM847.406 348.2C843.673 348.2 841.406 349.8 840.606 353L834.506 378.3L818.006 381.5V393.6C818.006 395.6 818.573 397.134 819.706 398.2C820.839 399.2 822.207 399.7 823.807 399.7H832.606V453.3C832.606 457.9 833.273 462.066 834.606 465.8C835.94 469.533 837.873 472.734 840.406 475.4C843.006 478 846.173 480.033 849.906 481.5C853.706 482.9 858.073 483.6 863.006 483.6C868.339 483.6 873.506 482.867 878.506 481.4C883.506 479.867 888.006 477.6 892.006 474.6L882.606 459.9C882.007 458.967 881.406 458.3 880.807 457.9C880.273 457.434 879.54 457.2 878.606 457.2C877.94 457.2 877.34 457.333 876.807 457.6C876.34 457.8 875.806 458.067 875.206 458.4C874.673 458.667 874.006 458.934 873.206 459.2C872.473 459.4 871.539 459.5 870.406 459.5C868.206 459.5 866.507 458.733 865.307 457.2C864.173 455.6 863.607 453.6 863.606 451.2V399.7H889.307V378.5H863.606V348.2H847.406ZM928.164 348.2C924.431 348.2 922.164 349.8 921.364 353L915.264 378.3L898.764 381.5V393.6C898.764 395.6 899.331 397.134 900.464 398.2C901.597 399.2 902.964 399.7 904.564 399.7H913.364V453.3C913.364 457.9 914.031 462.066 915.364 465.8C916.698 469.533 918.631 472.734 921.164 475.4C923.764 478 926.931 480.033 930.664 481.5C934.464 482.9 938.831 483.6 943.764 483.6C949.097 483.6 954.264 482.867 959.264 481.4C964.264 479.867 968.764 477.6 972.764 474.6L963.364 459.9C962.764 458.967 962.164 458.3 961.564 457.9C961.031 457.434 960.297 457.2 959.364 457.2C958.698 457.2 958.098 457.333 957.564 457.6C957.098 457.8 956.564 458.067 955.964 458.4C955.431 458.667 954.764 458.934 953.964 459.2C953.231 459.4 952.297 459.5 951.164 459.5C948.964 459.5 947.264 458.733 946.064 457.2C944.931 455.6 944.364 453.6 944.364 451.2V399.7H970.064V378.5H944.364V348.2H928.164ZM1089.08 376.7C1081.14 376.7 1074.01 378.066 1067.67 380.8C1061.41 383.533 1056.04 387.234 1051.58 391.9C1047.18 396.567 1043.78 402 1041.38 408.2C1039.04 414.4 1037.88 420.967 1037.88 427.9C1037.88 437.1 1039.24 445.166 1041.97 452.1C1044.77 459.033 1048.54 464.833 1053.28 469.5C1058.08 474.166 1063.64 477.7 1069.97 480.1C1076.37 482.433 1083.21 483.6 1090.47 483.6C1094.01 483.6 1097.71 483.333 1101.58 482.8C1105.51 482.333 1109.41 481.467 1113.28 480.2C1117.21 478.867 1121.01 477.066 1124.67 474.8C1128.41 472.466 1131.88 469.466 1135.08 465.8L1126.08 454.7C1124.81 452.9 1122.94 452 1120.47 452C1118.61 452 1116.81 452.433 1115.08 453.3C1113.41 454.166 1111.54 455.134 1109.47 456.2C1107.47 457.267 1105.17 458.233 1102.58 459.1C1099.98 459.966 1096.88 460.4 1093.28 460.4C1086.54 460.4 1081.04 458.466 1076.78 454.6C1072.51 450.666 1069.88 444.367 1068.88 435.7H1128.67C1130.07 435.7 1131.21 435.534 1132.08 435.2C1133.01 434.867 1133.74 434.267 1134.28 433.4C1134.81 432.534 1135.17 431.367 1135.38 429.9C1135.57 428.434 1135.67 426.533 1135.67 424.2C1135.67 416.734 1134.51 410.067 1132.17 404.2C1129.91 398.267 1126.71 393.267 1122.58 389.2C1118.51 385.134 1113.61 382.034 1107.88 379.9C1102.21 377.767 1095.94 376.7 1089.08 376.7ZM313.412 336.3V482H371.612C380.345 482 388.112 480.9 394.912 478.7C401.712 476.434 407.413 473.334 412.013 469.4C416.679 465.4 420.212 460.734 422.612 455.4C425.012 450.067 426.213 444.3 426.213 438.1C426.213 429.833 423.912 423.1 419.312 417.9C414.713 412.7 407.613 408.933 398.013 406.6C402.412 405 406.179 403.1 409.312 400.9C412.446 398.7 415.013 396.3 417.013 393.7C419.013 391.034 420.479 388.2 421.412 385.2C422.345 382.134 422.812 378.967 422.812 375.7C422.812 369.7 421.779 364.267 419.713 359.4C417.713 354.534 414.479 350.4 410.013 347C405.546 343.6 399.779 340.966 392.713 339.1C385.646 337.233 377.079 336.3 367.013 336.3H313.412ZM446.935 378.3V482H477.935V378.3H446.935ZM500.455 378.3V401.3H545.354L501.654 459.2C500.321 460.867 499.321 462.666 498.654 464.6C497.988 466.533 497.654 468.134 497.654 469.4V482H579.654V459H533.354L576.654 401.8C577.854 400.533 578.821 398.9 579.555 396.9C580.288 394.9 580.654 392.833 580.654 390.7V378.3H500.455ZM987.422 332.3V482H1018.42V332.3H987.422ZM370.812 420.2C375.079 420.2 378.612 420.6 381.412 421.4C384.212 422.2 386.446 423.333 388.112 424.8C389.846 426.266 391.046 428.067 391.713 430.2C392.446 432.333 392.812 434.734 392.812 437.4C392.812 439.734 392.512 442.033 391.912 444.3C391.312 446.566 390.212 448.6 388.612 450.4C387.012 452.2 384.779 453.667 381.912 454.8C379.112 455.933 375.479 456.5 371.013 456.5H347.213V420.2H370.812ZM761.761 398.1C765.094 398.1 767.927 398.667 770.261 399.8C772.594 400.933 774.461 402.433 775.861 404.3C777.328 406.1 778.361 408.167 778.961 410.5C779.628 412.833 779.961 415.234 779.961 417.7H741.361C742.428 411.367 744.628 406.534 747.961 403.2C751.294 399.8 755.894 398.1 761.761 398.1ZM1089.67 398.1C1093.01 398.1 1095.84 398.667 1098.17 399.8C1100.51 400.933 1102.38 402.433 1103.78 404.3C1105.24 406.1 1106.28 408.167 1106.88 410.5C1107.54 412.833 1107.88 415.234 1107.88 417.7H1069.28C1070.34 411.367 1072.54 406.534 1075.88 403.2C1079.21 399.8 1083.81 398.1 1089.67 398.1ZM367.013 361.6C370.813 361.6 374.079 361.9 376.812 362.5C379.612 363.1 381.913 364.1 383.713 365.5C385.513 366.9 386.846 368.766 387.713 371.1C388.58 373.366 389.013 376.234 389.013 379.7C389.013 383.233 388.446 386.167 387.312 388.5C386.246 390.833 384.646 392.667 382.513 394C380.446 395.333 377.912 396.266 374.912 396.8C371.912 397.333 368.546 397.6 364.812 397.6H347.213V361.6H367.013ZM462.135 331.7C459.601 331.7 457.234 332.166 455.034 333.1C452.834 334.033 450.868 335.333 449.135 337C447.468 338.667 446.135 340.6 445.135 342.8C444.201 345 443.734 347.367 443.734 349.9C443.734 352.367 444.201 354.701 445.135 356.9C446.135 359.034 447.468 360.933 449.135 362.6C450.868 364.2 452.834 365.5 455.034 366.5C457.234 367.433 459.601 367.9 462.135 367.9C464.735 367.9 467.168 367.433 469.435 366.5C471.768 365.5 473.801 364.2 475.534 362.6C477.267 360.933 478.635 359.034 479.635 356.9C480.635 354.701 481.135 352.367 481.135 349.9C481.135 347.367 480.635 345 479.635 342.8C478.635 340.6 477.268 338.667 475.534 337C473.801 335.333 471.768 334.033 469.435 333.1C467.168 332.166 464.735 331.7 462.135 331.7Z" fill="black"/>
</svg>
